<?xml version="1.0" encoding="UTF-8" standalone="no"?>
<svg
   xmlns:dc="http://purl.org/dc/elements/1.1/"
   xmlns:cc="http://creativecommons.org/ns#"
   xmlns:rdf="http://www.w3.org/1999/02/22-rdf-syntax-ns#"
   xmlns:svg="http://www.w3.org/2000/svg"
   xmlns="http://www.w3.org/2000/svg"
   version="1.1"
   id="svg2"
   viewBox="0 0 224 224"
   height="336"
   width="336">
  <metadata
     id="metadata16">
    <rdf:RDF>
      <cc:Work
         rdf:about="">
        <dc:format>image/svg+xml</dc:format>
        <dc:type
           rdf:resource="http://purl.org/dc/dcmitype/StillImage" />
        <dc:title></dc:title>
      </cc:Work>
    </rdf:RDF>
  </metadata>
  <defs
     id="defs14" />
  <g
     transform="translate(199.99997,0)"
     id="g4324" />
  <circle
     style="display:inline;fill:none;fill-opacity:1;stroke:#000000;stroke-width:16.66666603;stroke-miterlimit:4;stroke-dasharray:none;stroke-opacity:0.2"
     cx="111.45172"
     cy="112.77123"
     r="98.988503"
     id="circle4221" />
  <ellipse
     ry="99.873161"
     rx="92.541344"
     transform="matrix(1,0,0.02188939,0.9997604,0,0)"
     style="opacity:1;fill:#fcf5c7;fill-opacity:1;fill-rule:nonzero;stroke:#f8e77f;stroke-width:15.8494463;stroke-linecap:round;stroke-linejoin:miter;stroke-miterlimit:4;stroke-dasharray:none;stroke-dashoffset:0;stroke-opacity:1"
     id="path4322"
     cx="118.05108"
     cy="111.3148" />
  <g
     transform="matrix(0.89486301,-0.19279389,0.22915853,0.96097488,-5.4135971,24.979571)"
     id="g4341">
    <path
       id="rect4177"
       d="m 80.5754,120.45913 c 13.100779,-19.09185 48.82208,-15.89247 61.45347,3.51314 4.42339,6.79566 -4.47708,15.77942 -6.72077,23.5713 -3.31739,11.5206 0.85054,28.54593 -6.41527,38.08204 -2.27464,2.98539 -5.51744,3.27265 -9.18974,4.04774 -7.98552,1.68546 -16.23733,4.90045 -22.325773,-0.53464 -8.179967,-7.30217 -4.118068,-22.43587 -7.178998,-32.96508 -3.300982,-11.35496 -16.313522,-25.96424 -9.622919,-35.7145 z"
       style="opacity:1;fill:#d5d5d5;fill-opacity:1;fill-rule:nonzero;stroke:none;stroke-width:5.5;stroke-linecap:round;stroke-linejoin:miter;stroke-miterlimit:4;stroke-dasharray:none;stroke-dashoffset:0;stroke-opacity:1" />
    <path
       d="m 112.48476,36.648492 c -27.677832,-2e-6 -50.115157,22.437317 -50.115157,50.115153 0,23.624505 6.161705,23.618325 10.732906,34.897425 4.303792,10.61929 15.620762,30.62057 15.620762,30.62057 1.734823,3.4007 10.638371,6.91244 23.761489,6.91244 13.12312,0 23.7615,-3.0948 23.76149,-6.91244 0,0 2.76697,-19.44493 10.09863,-27.80945 7.05824,-8.05257 12.36901,-4.48966 16.14702,-29.753578 6.58842,-44.057333 -22.32931,-58.070122 -50.00714,-58.07012 z"
       style="opacity:1;fill:#f7e368;fill-opacity:1;fill-rule:nonzero;stroke:none;stroke-width:3.66666675;stroke-linecap:round;stroke-linejoin:miter;stroke-miterlimit:4;stroke-dasharray:none;stroke-dashoffset:0;stroke-opacity:1"
       id="path4175" />
    <path
       id="path4160"
       d="m 134.78033,167.90426 c -0.95778,9.09877 -1.85763,8.59741 -23.83373,10.1254 l -16.002235,1.11262"
       style="opacity:1;fill:none;fill-opacity:0.85714285;fill-rule:nonzero;stroke:#000000;stroke-width:6.4370966;stroke-linecap:round;stroke-linejoin:miter;stroke-miterlimit:4;stroke-dasharray:none;stroke-dashoffset:0;stroke-opacity:1" />
    <path
       style="opacity:1;fill:none;fill-opacity:0.85714285;fill-rule:nonzero;stroke:#000000;stroke-width:4.72053814;stroke-linecap:round;stroke-linejoin:miter;stroke-miterlimit:4;stroke-dasharray:none;stroke-dashoffset:0;stroke-opacity:1"
       d="m 129.80145,183.63154 c -7.40377,6.84493 -12.41972,6.39078 -18.23615,6.65803 -5.13769,0.23608 -15.023711,-2.23546 -15.023711,-2.23546"
       id="path4166" />
    <path
       d="m 118.12677,147.67948 c 0,0 13.2862,-29.41294 7.45247,-45.36285 -1.56653,-4.283042 -15.08707,8.38748 -15.95112,12.0597 -0.86405,3.67224 1.83162,7.16551 3.99176,2.62922 2.16013,-4.53628 -11.87625,-19.694295 -15.906392,-14.68892 -3.93801,4.89094 4.306882,43.77523 3.672232,46.44292 -1.17882,4.95504 -5.53245,7.91454 -9.64233,8.15147 -6.107273,0.3521 -2.962867,-18.19562 -17.010158,-32.24723 C 59.344193,109.27002 54.981077,86.004797 63.746202,66.078384 72.511326,46.151969 92.606643,33.652046 114.34932,34.601643 c 21.74266,0.9496 40.67241,15.153919 47.66801,35.768674 6.99561,20.614753 -0.004,41.375123 -15.18565,56.972553 -13.27423,13.63772 -11.13488,19.00257 -11.74586,24.80686 -0.95778,9.09878 -0.56259,10.49252 -22.42266,13.21666 l -19.452087,2.42406"
       style="color:#000000;clip-rule:nonzero;display:inline;overflow:visible;visibility:visible;opacity:1;isolation:auto;mix-blend-mode:normal;color-interpolation:sRGB;color-interpolation-filters:linearRGB;solid-color:#000000;solid-opacity:1;fill:none;fill-opacity:1;fill-rule:nonzero;stroke:#000000;stroke-width:6.43709707;stroke-linecap:round;stroke-linejoin:miter;stroke-miterlimit:4;stroke-dasharray:none;stroke-dashoffset:0;stroke-opacity:1;color-rendering:auto;image-rendering:auto;shape-rendering:auto;text-rendering:auto;enable-background:accumulate"
       id="path4168" />
  </g>
</svg>
